<svg width="57" height="56" viewBox="0 0 57 56" fill="none" xmlns="http://www.w3.org/2000/svg">
<rect x="4.66699" y="4" width="48" height="48" rx="24" fill="#FFDFCE"/>
<rect x="4.66699" y="4" width="48" height="48" rx="24" stroke="#FFFAF7" stroke-width="8"/>
<path d="M25.667 25V22C25.667 20.3431 24.3238 19 22.667 19C21.0101 19 19.667 20.3431 19.667 22C19.667 23.6569 21.0101 25 22.667 25H25.667ZM25.667 25V31M25.667 25H31.667M25.667 31V34C25.667 35.6569 24.3238 37 22.667 37C21.0101 37 19.667 35.6569 19.667 34C19.667 32.3431 21.0101 31 22.667 31H25.667ZM25.667 31H31.667M31.667 31H34.667C36.3238 31 37.667 32.3431 37.667 34C37.667 35.6569 36.3238 37 34.667 37C33.0101 37 31.667 35.6569 31.667 34V31ZM31.667 31V25M31.667 25V22C31.667 20.3431 33.0101 19 34.667 19C36.3238 19 37.667 20.3431 37.667 22C37.667 23.6569 36.3238 25 34.667 25H31.667Z" stroke="#FF5A00" stroke-width="2" stroke-linecap="round" stroke-linejoin="round"/>
</svg>
